<?xml version="1.0" encoding="UTF-8"?>
<!DOCTYPE svg PUBLIC "-//W3C//DTD SVG 1.1//EN" "http://www.w3.org/Graphics/SVG/1.1/DTD/svg11.dtd">
<!-- Creator: CorelDRAW X7 -->
<svg xmlns="http://www.w3.org/2000/svg" xml:space="preserve" width="182.209mm" height="139.324mm" version="1.1" style="shape-rendering:geometricPrecision; text-rendering:geometricPrecision; image-rendering:optimizeQuality; fill-rule:evenodd; clip-rule:evenodd"
viewBox="0 0 18670 14276"
 xmlns:xlink="http://www.w3.org/1999/xlink">
 <defs>
  <style type="text/css">
   <![CDATA[
    .str1 {stroke:#E1AE23;stroke-width:76.8483}
    .str0 {stroke:#E1AE23;stroke-width:76.8483;stroke-linecap:square;stroke-linejoin:bevel}
    .fil1 {fill:none}
    .fil0 {fill:#FBDE8E}
   ]]>
  </style>
 </defs>
 <g id="Layer_x0020_1">
  <metadata id="CorelCorpID_0Corel-Layer"/>
  <g id="_2466089309504">
   <path class="fil0 str0" d="M18115 8003l516 0 0 623 -516 0 0 -623zm-18077 -624l3616 -4364 2066 0 516 623 517 -623 2065 0 517 623 516 -623 2066 0 517 623 516 -623 2066 0 3615 4364 -1032 0 0 1247 -3616 -4364 -516 623 3615 4365 -1033 0 0 1246 -3615 -4364 -517 624 3616 4364 -1033 0 0 1247 -3616 -4364 -516 623 3615 4364 -1033 0 0 1247 -3615 -4364 -3615 4364 0 -1247 -1033 0 3615 -4364 -516 -623 -3616 4364 0 -1247 -1033 0 3616 -4364 -517 -624 -3615 4364 0 -1246 -1033 0 3615 -4365 -516 -623 -3616 4364 0 -1247 -1033 0zm7748 -1870l516 -624 -516 -623 -517 623 517 624zm3098 0l517 -624 -517 -623 -516 623 516 624zm-1549 1870l516 -623 -516 -624 -517 624 517 623zm-9297 624l517 0 0 623 -517 0 0 -623zm1550 1870l516 0 0 623 -516 0 0 -623zm1549 1870l517 0 0 624 -517 0 0 -624zm1550 1871l516 0 0 623 -516 0 0 -623zm8780 0l516 0 0 623 -516 0 0 -623zm1549 -1871l517 0 0 624 -517 0 0 -624zm1550 -1870l516 0 0 623 -516 0 0 -623z"/>
   <path class="fil1 str1" d="M1071 7379l3616 -4364 8263 9975m-10329 -3740l5165 -6235 6728 8105m-3630 -8105l5165 6235m1550 -1871l-3616 -4364 -8263 9975m5164 -9975l-6714 8105m-1033 -7482l1033 0 0 1247m-1549 -623l1033 0 0 1247m-1550 -624l1033 0 0 1247m-1549 -623l1033 0 0 1247m-1550 -624l1033 0 0 1247m-1549 -623l1033 0 0 1247m3099 -2494l1033 0 0 1247m-1550 -624l1033 0 0 1247m-1549 -623l1033 0 0 1247m-1550 -624l1033 0 0 1247m-1549 -623l1033 0 0 1247m-1550 -624l1033 0 0 1247m3099 -2494l1033 0 0 1247m517 624l1032 0 0 1246m-1549 -623l1033 0 0 1247m-1549 -624l1033 0 0 1247m-1550 -623l1033 0 0 1247m-1549 -624l1033 0 0 1247m-1550 -623l1033 0 0 1247m-516 -5611l1033 0 0 1247m-1550 -624l1033 0 0 1247m-1549 -623l1033 0 0 1246m-1550 -623l1033 0 0 1247m-1549 -624l1033 0 0 1247m3099 -6234l-1033 0 0 1247m-517 -3118l-1033 0 0 1247m4132 2494l-1033 0 0 1247m2582 624l-1033 0 0 1246m1550 -623l-1033 0 0 1247m1549 -624l-1033 0 0 1247m1550 -623l-1033 0 0 1247m1549 -624l-1033 0 0 1247m1550 -623l-1033 0 0 1247m2582 -3139l-1033 0 0 1247m517 -1849l-1033 0 0 1247m516 -1870l-1033 0 0 1246m517 -1883l-1033 0 0 1247m516 -1857l-1033 0 0 1247m517 -1871l-1033 0 0 1247m2582 -3117l-1033 0 0 1247m1550 -624l-1033 0 0 1247m1549 -623l-1033 0 0 1247m1550 -624l-1033 0 0 1247m1549 -623l-1033 0 0 1247m1550 -624l-1033 0 0 1247m-9297 -6235l1033 0 0 1247m517 624l1032 0 0 1247m517 623l1033 0 0 1247m516 -3117l-1033 0 0 1247m-516 -3118l-1033 0 0 1247m7231 -1247l-1033 0 0 1247m1549 -642l-1033 0 0 1247m1550 -605l-1033 0 0 1247m1549 -623l-1033 0 0 1247m1550 -624l-1033 0 0 1247m1549 -623l-1033 0 0 1247m-6198 -2494l1033 0 0 1247m517 -3118l1033 0 0 1247m-1033 -1247l-1033 0 0 1247m-2066 -1247l1033 0 0 1247m-1033 -1247l0 2494m-1033 -1247l2066 0m-1033 2494l0 2494m-1033 -1247l2066 0m-2582 -3117l0 2494m-1033 -1247l2065 0m-2582 -3118l0 2494m-1033 -1247l2066 0m5165 -1247l0 2494m-1033 -1247l2066 0m-2583 624l0 2494m-1033 -1247l2066 0m-4131 -3741l0 1247m3098 -1247l0 1247m3099 -1247l0 1247m-9296 -1247l0 1247m1033 623l0 -623 1033 0 0 623m516 1871l0 -624 1033 0 0 624m516 -1871l0 -623 1033 0 0 623m-1033 3741l0 -623 1033 0 0 623m517 -1870l0 -624 1033 0 0 624m516 -1871l0 -623 1033 0 0 623"/>
   <path class="fil0 str0" d="M4730 1902l0 -1487 0 -415 1895 0 0 273 -1088 0 0 1485 0 144 -807 0zm2110 0l0 -1487 0 -415 1895 0 0 273 -1087 0 0 1485 0 144 -808 0zm2811 -1902l808 0 849 1486 240 416 -911 0 -315 -551 -952 0 -280 551 -455 0 794 -1486 222 -416zm179 459l-354 640 702 0 -348 -640zm3213 -453l897 0 -853 1486 -235 410 -858 0 290 -440 -886 -1456 459 0 629 1099 557 -1099z"/>
  </g>
 </g>
</svg>
